<mxfile host="app.diagrams.net" modified="2021-02-25T13:13:47.380Z" agent="5.0 (Macintosh; Intel Mac OS X 10_15_7) AppleWebKit/537.36 (KHTML, like Gecko) Chrome/88.0.4324.182 Safari/537.36 Edg/88.0.705.74" etag="_O-XvUNJxJ-dK5hOpiWq" version="14.3.0" type="github">
  <diagram id="cMkUZfxSIkf8gFwWFndX" name="Page-1">
    <mxGraphModel dx="2066" dy="1051" grid="1" gridSize="10" guides="1" tooltips="1" connect="1" arrows="1" fold="1" page="1" pageScale="1" pageWidth="850" pageHeight="1100" math="0" shadow="0">
      <root>
        <mxCell id="0" />
        <mxCell id="1" parent="0" />
        <mxCell id="u99DLukxhMqcWAfRv65I-7" style="edgeStyle=orthogonalEdgeStyle;rounded=0;orthogonalLoop=1;jettySize=auto;html=1;exitX=1;exitY=0.5;exitDx=0;exitDy=0;entryX=0;entryY=0.5;entryDx=0;entryDy=0;strokeWidth=2;" edge="1" parent="1" source="u99DLukxhMqcWAfRv65I-1" target="u99DLukxhMqcWAfRv65I-4">
          <mxGeometry relative="1" as="geometry" />
        </mxCell>
        <mxCell id="u99DLukxhMqcWAfRv65I-1" value="&lt;font style=&quot;font-size: 18px&quot;&gt;场景定义&lt;/font&gt;" style="rounded=1;whiteSpace=wrap;html=1;" vertex="1" parent="1">
          <mxGeometry x="120" y="240" width="160" height="80" as="geometry" />
        </mxCell>
        <mxCell id="u99DLukxhMqcWAfRv65I-4" value="&lt;span style=&quot;font-size: 18px&quot;&gt;match匹配&lt;/span&gt;" style="rounded=1;whiteSpace=wrap;html=1;" vertex="1" parent="1">
          <mxGeometry x="360" y="240" width="160" height="80" as="geometry" />
        </mxCell>
        <mxCell id="u99DLukxhMqcWAfRv65I-10" value="" style="edgeStyle=orthogonalEdgeStyle;rounded=0;orthogonalLoop=1;jettySize=auto;html=1;strokeWidth=2;" edge="1" parent="1" source="u99DLukxhMqcWAfRv65I-5" target="u99DLukxhMqcWAfRv65I-4">
          <mxGeometry relative="1" as="geometry" />
        </mxCell>
        <mxCell id="u99DLukxhMqcWAfRv65I-5" value="&lt;font style=&quot;font-size: 18px&quot;&gt;预期结果&lt;/font&gt;" style="rounded=1;whiteSpace=wrap;html=1;" vertex="1" parent="1">
          <mxGeometry x="600" y="240" width="160" height="80" as="geometry" />
        </mxCell>
        <mxCell id="u99DLukxhMqcWAfRv65I-11" value="触发条件" style="text;html=1;strokeColor=none;fillColor=none;align=center;verticalAlign=middle;whiteSpace=wrap;rounded=0;fontSize=14;" vertex="1" parent="1">
          <mxGeometry x="165" y="330" width="70" height="20" as="geometry" />
        </mxCell>
        <mxCell id="u99DLukxhMqcWAfRv65I-13" value="触发过程" style="text;html=1;strokeColor=none;fillColor=none;align=center;verticalAlign=middle;whiteSpace=wrap;rounded=0;fontSize=14;" vertex="1" parent="1">
          <mxGeometry x="405" y="330" width="70" height="20" as="geometry" />
        </mxCell>
        <mxCell id="u99DLukxhMqcWAfRv65I-14" value="触发结果" style="text;html=1;strokeColor=none;fillColor=none;align=center;verticalAlign=middle;whiteSpace=wrap;rounded=0;fontSize=14;" vertex="1" parent="1">
          <mxGeometry x="645" y="330" width="70" height="20" as="geometry" />
        </mxCell>
      </root>
    </mxGraphModel>
  </diagram>
</mxfile>
